<svg xmlns="http://www.w3.org/2000/svg" width="49.213" height="49.213" viewBox="0 0 410.273 87.5" fill="#1467eb"
  xmlns:v="https://vecta.io/nano">
  <path
    d="M66.891.633h20.067v29.649h.542V0H66.89v.633zM.633 30.282V.633H20.61V0H0v30.282h.633zM20.61 86.958H.633V57.219H0V87.5h20.61v-.542zm66.348-29.739v29.739H66.891v.542H87.5V57.219h-.542zM42.356 69.337c9.629 0 11.974-4.773 8.959-6.699 1.842-3.6 6.447-3.433 6.447.251 0 5.694-7.703 9.378-15.574 9.378C29.378 72.268 20 62.471 20 48.99 20 32.998 34.569 16 50.897 16c10.467 0 16.83 4.689 16.83 10.885 0 4.019-2.261 7.871-6.531 7.871-2.01 0-4.438-1.675-4.689-4.187 2.763-1.507 3.684-3.014 3.684-5.359 0-2.679-2.847-6.28-9.294-6.28-13.9 0-19.426 17.835-19.426 35.167-.084 11.22 3.768 15.239 10.885 15.239z" />
</svg>