<svg width="230.75000000000003" height="49.212691114557956" viewBox="0 0 410.27272727272725 87.5" class="looka-1j8o68f">
  <defs id="SvgjsDefs3448"></defs>
  <g id="SvgjsG3449" featurekey="symbolContainer" transform="matrix(0.9039255913371695,0,0,0.9039255913371695,0,0)"
    fill="#1467eb">
    <path xmlns="http://www.w3.org/2000/svg"
      d="M74 .7h22.2v32.8h.6V0H74v.7zM.7 33.5V.7h22.1V0H0v33.5h.7zm22.1 62.7H.7V63.3H0v33.5h22.8v-.6zm73.4-32.9v32.9H74v.6h22.8V63.3h-.6z">
    </path>
  </g>
  <g id="SvgjsG3450" featurekey="monogramFeature-0"
    transform="matrix(1.3955344147984146,0,0,1.3955344147984146,19.999997338229342,-12.217707570757163)" fill="#1467eb">
    <path
      d="M16.02 58.44 c6.9 0 8.58 -3.42 6.42 -4.8 c1.32 -2.58 4.62 -2.46 4.62 0.18 c0 4.08 -5.52 6.72 -11.16 6.72 c-9.18 0 -15.9 -7.02 -15.9 -16.68 c0 -11.46 10.44 -23.64 22.14 -23.64 c7.5 0 12.06 3.36 12.06 7.8 c0 2.88 -1.62 5.64 -4.68 5.64 c-1.44 0 -3.18 -1.2 -3.36 -3 c1.98 -1.08 2.64 -2.16 2.64 -3.84 c0 -1.92 -2.04 -4.5 -6.66 -4.5 c-9.96 0 -13.92 12.78 -13.92 25.2 c-0.06 8.04 2.7 10.92 7.8 10.92 z">
    </path>
  </g>
  <g id="SvgjsG3451" featurekey="nameFeature-0"
    transform="matrix(0.5597651955328031,0,0,0.5597651955328031,107.06163034237252,12.590498883629007)" fill="#1467eb">
    <path
      d="M21.597 17.67 c0 -1.582 -2.3573 -3.1132 -5.7088 -3.1132 c-4.2456 0 -8.0496 2.9532 -8.0496 12.283 c0 7.2496 2.946 11.909 8.2232 11.909 c3.3876 0 6.0912 -1.8316 7.3796 -4.0952 c0.38762 -0.6416 0.6124 -0.7396 0.8664 -0.7396 c0.33359 0 0.5876 0.2648 0.57636 0.5988 c-0.0884 0.5944 -0.6248 1.4152 -1.4784 2.3036 c-1.56 1.7684 -4.2992 3.5864 -8.4524 3.5864 c-8.4868 0 -13.277 -5.8716 -13.277 -13.563 c0 -8.0264 5.3668 -13.603 13.378 -13.603 c6.0468 0 9.8812 3.182 9.8812 6.7076 c0 2.3284 -1.3724 3.338 -2.676 3.338 c-1.2056 0 -2.3712 -0.8316 -2.3712 -2.284 c0 -1.6208 1.7088 -2.1216 1.7088 -3.3284 z M46.331 13.265999999999998 c8.2468 0 13.486 5.8788 13.486 13.519 s-5.2388 13.618 -13.486 13.618 c-8.276 0 -13.486 -5.978 -13.486 -13.618 s5.2096 -13.519 13.486 -13.519 z M46.331 39.1988 c5.5712 0 7.3228 -5.6936 7.3228 -12.414 s-1.7516 -12.314 -7.3228 -12.314 c-5.5708 0 -7.3224 5.5944 -7.3224 12.314 s1.7516 12.414 7.3224 12.414 z M82.32900000000001 40.2068 l-1.6451 0 l-9.8496 -23.868 l0 21.234 c0 0.6428 0.494 1.2456 1.2748 1.2456 l0.72558 0 c0.3516 0 0.6056 0.25359 0.6056 0.6052 c0 0.32281 -0.25398 0.5764 -0.6056 0.5764 l-5.414 0 c-0.3516 0 -0.6056 -0.25359 -0.6056 -0.5764 c0 -0.3516 0.25398 -0.6052 0.6056 -0.6052 l0.72558 0 c0.7808 0 1.2748 -0.6028 1.2748 -1.2456 l0 -21.505 c0 -0.6428 -0.494 -1.2456 -1.2748 -1.2456 l-0.72558 0 c-0.3516 0 -0.6056 -0.25398 -0.6056 -0.6056 c0 -0.32281 0.25398 -0.5764 0.6056 -0.5764 l8.2744 0 l8.004 19.324 l7.5724 -19.324 l7.9792 0 c0.3516 0 0.6056 0.25359 0.6056 0.6052 c0 0.32281 -0.25398 0.5768 -0.6056 0.5768 l-0.72558 0 c-0.7808 0 -1.2744 0.6028 -1.2744 1.2456 l0.005586 21.505 c0 0.6428 0.4936 1.2456 1.2744 1.2456 l0.72558 0 c0.3516 0 0.6052 0.25359 0.6052 0.5764 c0 0.3516 -0.25359 0.6052 -0.6052 0.6052 l-9.6192 0 c-0.3516 0 -0.6052 -0.25359 -0.6052 -0.6052 c0 -0.32281 0.25359 -0.5764 0.6052 -0.5764 l0.72558 0 c0.766 0 1.2568 -0.5796 1.274 -1.2108 l-0.005586 -21.23 z  M128.904 21.379 l0.0027734 -0.00042968 c0 4.76 -3.5904 8.3696 -10.858 8.3696 l-3.6744 0 l0 7.9248 c0 0.6052 0.5284 1.1444 1.2684 1.1444 l1.7436 0 c0.3516 0 0.6056 0.25359 0.6056 0.6052 c0 0.32281 -0.25398 0.5764 -0.6056 0.5764 l-10.632 0 c-0.3516 0 -0.6052 -0.25359 -0.6052 -0.6052 c0 -0.32281 0.25359 -0.5764 0.6052 -0.5764 l0.72558 0 c0.7344 0 1.2688 -0.5244 1.2688 -1.1324 l-0.005586 -21.719 c0 -0.6108 -0.5284 -1.144 -1.2684 -1.144 l-0.72558 0 c-0.3516 0 -0.6056 -0.25398 -0.6056 -0.5768 c0 -0.3516 0.25398 -0.6052 0.6056 -0.6052 l11.296 0 c7.2676 0 10.858 3.3792 10.858 7.7392 z M114.3748 28.566000000000003 l2.4332 0 c3.9408 0 6.0264 -2.8676 6.0264 -7.1876 c0 -3.64 -1.6856 -6.5572 -6.0264 -6.5572 l-1.1644 0 c-0.7344 0 -1.2688 0.5332 -1.2688 1.1324 l0 12.612 z M154.91699999999997 32.4112 c0.32281 0 0.57596 0.25316 0.57596 0.60476 l0 6.9836 l-19.728 0 c-0.3516 0 -0.6052 -0.25359 -0.6052 -0.6052 c0 -0.32281 0.25359 -0.5764 0.6052 -0.5764 l0.72558 0 c0.7344 0 1.2688 -0.5244 1.2688 -1.1324 l-0.005586 -21.719 c0 -0.6108 -0.5284 -1.144 -1.2684 -1.144 l-0.72558 0 c-0.3516 0 -0.6056 -0.25398 -0.6056 -0.5768 c0 -0.3516 0.25398 -0.6052 0.6056 -0.6052 l9.6136 0 c0.3516 0 0.6056 0.25359 0.6056 0.6052 c0 0.32281 -0.25398 0.5768 -0.6056 0.5768 l-0.72558 0 c-0.7344 0 -1.2688 0.5332 -1.2688 1.1324 l0.0060156 21.719 c0 0.6052 0.5284 1.1444 1.2684 1.1444 l4.738 0 c3.1932 0 4.92 -2.734 4.92 -5.2624 l0 -0.53922 c0 -0.3516 0.25398 -0.6056 0.6056 -0.6056 z M171.309 38.818 c0.3516 0 0.60516 0.25316 0.60516 0.57596 c0 0.3516 -0.25398 0.6052 -0.6056 0.6052 l-9.6136 0 c-0.3516 0 -0.6052 -0.25359 -0.6052 -0.6052 c0 -0.32281 0.25359 -0.5764 0.6052 -0.5764 l0.72558 0 c0.7344 0 1.2688 -0.5244 1.2688 -1.1324 l-0.005586 -21.719 c0 -0.6108 -0.5284 -1.144 -1.2684 -1.144 l-0.72558 0 c-0.3516 0 -0.6056 -0.25398 -0.6056 -0.5768 c0 -0.3516 0.25398 -0.6052 0.6056 -0.6052 l9.6136 0 c0.3516 0 0.6056 0.25359 0.6056 0.6052 c0 0.32281 -0.25398 0.5768 -0.6056 0.5768 l-0.72558 0 c-0.7344 0 -1.2688 0.5332 -1.2688 1.1324 l0.0060156 21.719 c0 0.6052 0.5284 1.1444 1.2684 1.1444 l0.72558 0 z M204.983 38.818 c0.32281 0 0.6056 0.25359 0.6056 0.6052 c0 0.32281 -0.28281 0.5764 -0.60564 0.5764 l-11.324 0 c-0.32281 0 -0.60564 -0.25359 -0.60564 -0.5764 c0 -0.3516 0.28281 -0.6052 0.60564 -0.6052 l1.44 0 c0.8144 0 1.292 -0.6204 0.96004 -1.4 l-2.2732 -5.4428 l-9.4308 0 l-2.1912 5.4428 c-0.28 0.7316 0.16281 1.4 0.96 1.4 l1.44 0 c0.32281 0 0.60564 0.25359 0.60564 0.6052 c0 0.32281 -0.28281 0.5764 -0.60564 0.5764 l-6.6248 0 c-0.32281 0 -0.60564 -0.25359 -0.60564 -0.5764 c0 -0.3516 0.28281 -0.6052 0.60564 -0.6052 l0.96 0 c1.04 0 1.4908 -0.52 1.84 -1.4 l9.7296 -23.985 l1.6456 0 l10.029 24.025 c0.30879 0.72 0.84 1.36 1.96 1.36 l0.88 0 z M184.8304 30.822 l8.4616 0 l-4.3044 -10.324 z M234.95999999999998 13.64 c0.3516 0 0.60552 0.25367 0.60552 0.57648 c0 0.3516 -0.25398 0.6056 -0.6056 0.6056 l-0.72558 0 c-0.7808 0 -1.2744 0.6028 -1.2744 1.2456 l0 23.932 l-2.742 0 l-15.174 -20.574 l0 18.147 c0 0.6428 0.494 1.2456 1.2748 1.2456 l0.72558 0 c0.3516 0 0.6056 0.25359 0.6056 0.6052 c0 0.32281 -0.25398 0.5764 -0.6056 0.5764 l-5.414 0 c-0.3516 0 -0.6056 -0.25359 -0.6056 -0.5764 c0 -0.3516 0.25398 -0.6052 0.6056 -0.6052 l0.72558 0 c0.7808 0 1.2748 -0.6028 1.2748 -1.2456 l0 -21.505 c0 -0.6428 -0.494 -1.2456 -1.2748 -1.2456 l-0.72558 0 c-0.3516 0 -0.6056 -0.25398 -0.6056 -0.6056 c0 -0.32281 0.25398 -0.5764 0.6056 -0.5764 l5.6648 0 l14.251 19.254 l0 -16.826 c0 -0.6428 -0.4936 -1.2456 -1.2744 -1.2456 l-0.72558 0 c-0.3516 0 -0.6052 -0.25398 -0.6052 -0.6056 c0 -0.32281 0.25359 -0.5764 0.6052 -0.5764 l5.4136 0 z M262.477 17.67 c0 -1.582 -2.3573 -3.1132 -5.7088 -3.1132 c-4.2456 0 -8.0496 2.9532 -8.0496 12.283 c0 7.2496 2.946 11.909 8.2232 11.909 c3.3876 0 6.0912 -1.8316 7.3796 -4.0952 c0.38762 -0.6416 0.6124 -0.7396 0.8664 -0.7396 c0.33359 0 0.5876 0.2648 0.57636 0.5988 c-0.0884 0.5944 -0.6248 1.4152 -1.4784 2.3036 c-1.56 1.7684 -4.2992 3.5864 -8.4524 3.5864 c-8.4868 0 -13.277 -5.8716 -13.277 -13.563 c0 -8.0264 5.3668 -13.603 13.378 -13.603 c6.0468 0 9.8812 3.182 9.8812 6.7076 c0 2.3284 -1.3724 3.338 -2.676 3.338 c-1.2056 0 -2.3712 -0.8316 -2.3712 -2.284 c0 -1.6208 1.7088 -2.1216 1.7088 -3.3284 z M293.253 32.3008 l0.005586 -0.0003125 c0.32281 0 0.5764 0.25398 0.5764 0.6056 l0 7.094 l-20.214 0 c-0.3516 0 -0.6052 -0.25359 -0.6052 -0.6052 c0 -0.32281 0.25359 -0.5764 0.6052 -0.5764 l0.72558 0 c0.7344 0 1.2688 -0.5332 1.2688 -1.1324 l-0.005586 -21.719 c0 -0.6052 -0.5284 -1.1444 -1.2684 -1.1444 l-0.72558 0 c-0.3516 0 -0.6056 -0.25398 -0.6056 -0.5768 c0 -0.3516 0.25398 -0.6052 0.6056 -0.6052 l20.164 0 l0 7.094 c0 0.3516 -0.25359 0.6056 -0.6052 0.6056 c-0.32281 0 -0.5764 -0.25398 -0.5764 -0.6056 l0 -0.66762 c0 -2.76 -1.64 -5.244 -4.92 -5.244 l-5.174 0 c-0.7344 0 -1.2688 0.5244 -1.2688 1.1324 l0 9.7088 l1.4152 0 c3.0124 0 4.0772 -1.0732 4.0772 -3.5712 l0 -0.17922 c0 -0.32281 0.28281 -0.60564 0.60564 -0.60564 s0.60564 0.28281 0.60564 0.60564 l0 8.7408 c0 0.32281 -0.28281 0.60564 -0.60564 0.60564 s-0.60564 -0.25398 -0.60564 -0.69276 l0 -0.19039 c0 -2.342 -1.0068 -3.4732 -4.0772 -3.4732 l-1.4152 0 l0 10.77 c0 0.6108 0.5284 1.144 1.2684 1.144 l5.2236 0 c3.28 0 4.92 -2.484 4.92 -5.244 l0 -0.66762 c0 -0.3516 0.25359 -0.6056 0.6052 -0.6056 z M326.05400000000003 40.4028 c-5.316 0 -9.2256 -3.048 -9.2256 -6.6192 c0 -1.8592 1.2372 -2.8152 2.5116 -2.8152 c1.0924 0 2.2288 0.7184 2.2288 2.1488 c0 1.4428 -1.4112 1.9972 -1.4112 2.9972 c0 1.782 2.974 3.0552 5.338 3.0552 c3.244 0 6.382 -1.5736 6.382 -5.102 c0 -6.2716 -14.403 -3.6536 -14.403 -13.229 c0 -5.0924 4.3436 -7.6012 9.9036 -7.6012 c4.7364 0 8.9656 2.6496 8.9656 6.1048 c0 1.946 -1.2372 2.9308 -2.4828 2.9308 c-1.1216 0 -2.258 -0.7476 -2.258 -2.178 c0 -1.5584 1.382 -1.8812 1.382 -2.8812 c0 -1.6952 -2.974 -2.7436 -5.3092 -2.7436 c-3.04 0 -5.9296 1.1848 -5.9296 4.6496 c0 5.866 15.193 3.7708 15.193 13.345 c0 4.0208 -3.8304 7.938 -10.886 7.938 z M358.24100000000004 13.265999999999998 c8.2468 0 13.486 5.8788 13.486 13.519 s-5.2388 13.618 -13.486 13.618 c-8.276 0 -13.486 -5.978 -13.486 -13.618 s5.2096 -13.519 13.486 -13.519 z M358.24100000000004 39.1988 c5.5712 0 7.3228 -5.6936 7.3228 -12.414 s-1.7516 -12.314 -7.3228 -12.314 c-5.5708 0 -7.3224 5.5944 -7.3224 12.314 s1.7516 12.414 7.3224 12.414 z M398.487 32.4112 c0.32281 0 0.57596 0.25316 0.57596 0.60476 l0 6.9836 l-19.728 0 c-0.3516 0 -0.6052 -0.25359 -0.6052 -0.6052 c0 -0.32281 0.25359 -0.5764 0.6052 -0.5764 l0.72558 0 c0.7344 0 1.2688 -0.5244 1.2688 -1.1324 l-0.005586 -21.719 c0 -0.6108 -0.5284 -1.144 -1.2684 -1.144 l-0.72558 0 c-0.3516 0 -0.6056 -0.25398 -0.6056 -0.5768 c0 -0.3516 0.25398 -0.6052 0.6056 -0.6052 l9.6136 0 c0.3516 0 0.6056 0.25359 0.6056 0.6052 c0 0.32281 -0.25398 0.5768 -0.6056 0.5768 l-0.72558 0 c-0.7344 0 -1.2688 0.5332 -1.2688 1.1324 l0.0060156 21.719 c0 0.6052 0.5284 1.1444 1.2684 1.1444 l4.738 0 c3.1932 0 4.92 -2.734 4.92 -5.2624 l0 -0.53922 c0 -0.3516 0.25398 -0.6056 0.6056 -0.6056 z M430.141 13.64 l0.0022266 -0.00042968 c0.3516 0 0.6052 0.25359 0.6052 0.5764 c0 0.3516 -0.25359 0.6056 -0.6052 0.6056 l-0.72558 0 c-0.7808 0 -1.2748 0.6028 -1.2748 1.2456 l0 14.113 c0 7.3988 -4.3848 10.222 -10.108 10.222 c-5.356 0 -10.774 -2.6456 -10.774 -10.266 l0 -14.069 c0 -0.6428 -0.494 -1.2456 -1.2748 -1.2456 l-0.72558 0 c-0.3516 0 -0.6056 -0.25398 -0.6056 -0.5768 c0 -0.3516 0.25398 -0.6052 0.6056 -0.6052 l9.6192 0 c0.3516 0 0.6056 0.25359 0.6056 0.6052 c0 0.32281 -0.25398 0.5768 -0.6056 0.5768 l-0.72558 0 c-0.7808 0 -1.2748 0.6028 -1.2748 1.2456 l0 14.553 c0 5.6332 2.7764 7.9476 6.67 7.9476 c4.0152 0 7.178 -2.418 7.178 -8.0692 l0 -14.432 c0 -0.6428 -0.494 -1.2456 -1.2748 -1.2456 l-0.72558 0 c-0.3516 0 -0.6052 -0.25398 -0.6052 -0.6056 c0 -0.32281 0.25359 -0.5764 0.6052 -0.5764 l5.4136 0 z M459.38400000000007 13.64 l0.00082032 7.0936 c0 0.3516 -0.25359 0.6056 -0.6052 0.6056 c-0.32281 0 -0.5768 -0.25398 -0.5768 -0.6056 l0 -0.66762 c0 -2.76 -1.64 -5.244 -4.92 -5.244 l-1.1492 0 c-0.7344 0 -1.2688 0.5332 -1.2688 1.1324 l0.005586 21.719 c0 0.6052 0.5284 1.1444 1.2684 1.1444 l0.72558 0 c0.3516 0 0.6056 0.25359 0.6056 0.5764 c0 0.3516 -0.25398 0.6052 -0.6056 0.6052 l-9.6136 0 c-0.3516 0 -0.6056 -0.25359 -0.6056 -0.6052 c0 -0.32281 0.25398 -0.5764 0.6056 -0.5764 l0.72558 0 c0.7344 0 1.2688 -0.5244 1.2688 -1.1324 l-0.0060156 -21.719 c0 -0.6108 -0.5284 -1.144 -1.2684 -1.144 l-0.92281 0 c-3.3904 0 -5.1408 2.3736 -5.1408 5.4648 l0 0.4468 c0 0.3516 -0.25398 0.6056 -0.6056 0.6056 c-0.32281 0 -0.5768 -0.25398 -0.5768 -0.6056 l0 -7.094 l22.659 0 z M475.579 38.818 c0.3516 0 0.60516 0.25316 0.60516 0.57596 c0 0.3516 -0.25398 0.6052 -0.6056 0.6052 l-9.6136 0 c-0.3516 0 -0.6052 -0.25359 -0.6052 -0.6052 c0 -0.32281 0.25359 -0.5764 0.6052 -0.5764 l0.72558 0 c0.7344 0 1.2688 -0.5244 1.2688 -1.1324 l-0.005586 -21.719 c0 -0.6108 -0.5284 -1.144 -1.2684 -1.144 l-0.72558 0 c-0.3516 0 -0.6056 -0.25398 -0.6056 -0.5768 c0 -0.3516 0.25398 -0.6052 0.6056 -0.6052 l9.6136 0 c0.3516 0 0.6056 0.25359 0.6056 0.6052 c0 0.32281 -0.25398 0.5768 -0.6056 0.5768 l-0.72558 0 c-0.7344 0 -1.2688 0.5332 -1.2688 1.1324 l0.0060156 21.719 c0 0.6052 0.5284 1.1444 1.2684 1.1444 l0.72558 0 z M496.651 13.265999999999998 c8.2468 0 13.486 5.8788 13.486 13.519 s-5.2388 13.618 -13.486 13.618 c-8.276 0 -13.486 -5.978 -13.486 -13.618 s5.2096 -13.519 13.486 -13.519 z M496.651 39.1988 c5.5712 0 7.3228 -5.6936 7.3228 -12.414 s-1.7516 -12.314 -7.3228 -12.314 c-5.5708 0 -7.3224 5.5944 -7.3224 12.314 s1.7516 12.414 7.3224 12.414 z M541.07 13.64 c0.3516 0 0.60552 0.25367 0.60552 0.57648 c0 0.3516 -0.25398 0.6056 -0.6056 0.6056 l-0.72558 0 c-0.7808 0 -1.2744 0.6028 -1.2744 1.2456 l0 23.932 l-2.742 0 l-15.174 -20.574 l0 18.147 c0 0.6428 0.494 1.2456 1.2748 1.2456 l0.72558 0 c0.3516 0 0.6056 0.25359 0.6056 0.6052 c0 0.32281 -0.25398 0.5764 -0.6056 0.5764 l-5.414 0 c-0.3516 0 -0.6056 -0.25359 -0.6056 -0.5764 c0 -0.3516 0.25398 -0.6052 0.6056 -0.6052 l0.72558 0 c0.7808 0 1.2748 -0.6028 1.2748 -1.2456 l0 -21.505 c0 -0.6428 -0.494 -1.2456 -1.2748 -1.2456 l-0.72558 0 c-0.3516 0 -0.6056 -0.25398 -0.6056 -0.6056 c0 -0.32281 0.25398 -0.5764 0.6056 -0.5764 l5.6648 0 l14.251 19.254 l0 -16.826 c0 -0.6428 -0.4936 -1.2456 -1.2744 -1.2456 l-0.72558 0 c-0.3516 0 -0.6052 -0.25398 -0.6052 -0.6056 c0 -0.32281 0.25359 -0.5764 0.6052 -0.5764 l5.4136 0 z">
    </path>
  </g>
  <g id="SvgjsG3452" featurekey="sloganFeature-0"
    transform="matrix(0.7863494746919718,0,0,0.7863494746919718,107.13501565283096,50.53353549369608)" fill="#1467eb">
    <path
      d="M9 20.32 c-3.36 0 -7.9 -1.96 -7.9 -7.06 c0 -3.46 2.12 -7.58 7.72 -7.58 c2.32 0 4.32 0.72 4.08 1.42 l-0.26 0.78 c-0.72 2.14 -1.5 -0.6 -5.06 -0.6 c-2.86 0 -4.26 1.86 -4.26 4.74 c0 4.5 3.42 6.38 6.16 6.38 c0.36 0 2.18 -0.28 3.22 -0.94 c0.16 -0.1 0.58 0.36 0.46 0.54 c-0.86 1.26 -3.54 2.32 -4.16 2.32 z M22.5 20.32 c-4.16 0 -7.22 -3.08 -7.22 -7.24 c0 -4.04 2.88 -7.4 7.26 -7.4 c4.18 0 7.22 3.06 7.22 7.22 c0 4.06 -2.86 7.42 -7.26 7.42 z M23.28 18.96 c1.76 0 4.1 -1.16 4.1 -4.94 c0 -4.04 -2.74 -6.98 -5.62 -6.98 c-1.76 0 -4.08 1.16 -4.08 4.92 c0 4.08 2.74 7 5.6 7 z M44.92 20.2 c-0.34 0 -0.52 -0.14 -0.74 -0.38 l-9.52 -9.96 l0 7.6 c0 1.36 0.8 1.58 1.94 1.86 c0.16 0.04 0.08 0.68 -0.12 0.68 l-4.74 0 c-0.16 0 -0.28 -0.62 -0.1 -0.68 c0.84 -0.28 1.64 -0.44 1.64 -1.86 l0 -7.76 c0 -1.42 -0.22 -2.1 -0.74 -2.8 c-0.18 -0.24 -0.36 -0.4 -0.36 -0.46 c0 -0.18 0.12 -0.44 0.4 -0.44 l1.48 0 c0.2 0 0.34 0.02 0.48 0.18 l9.32 9.86 l0 -7.52 c0 -1.42 -0.9 -1.58 -1.94 -1.84 c-0.16 -0.04 -0.08 -0.68 0.12 -0.68 l4.74 0 c0.16 0 0.26 0.64 0.1 0.68 c-0.88 0.26 -1.64 0.42 -1.64 1.84 l0 7.78 c0 1.32 0.04 2.78 0.24 3.52 c0.08 0.3 -0.24 0.38 -0.56 0.38 z M48.46 20.04 c-0.2 0.02 -0.28 -0.68 -0.12 -0.72 c1.16 -0.3 2.06 -0.48 2.06 -1.96 l0 -8.88 c0 -1.28 -0.82 -1.62 -1.68 -1.84 c-0.16 -0.04 -0.06 -0.7 0.1 -0.68 c1.46 0.16 3.98 0.12 5.2 0.12 c1.82 0 3.14 -0.08 4.78 -0.12 c0.48 0 0.48 0.32 0.38 0.78 l-0.48 1.9 c-0.06 0.28 -0.56 0.28 -0.64 0 c-0.3 -0.98 -0.9 -1.54 -3.4 -1.54 c-1.4 0 -1.86 0.36 -1.86 1.4 l0 3.46 c0 0.52 0.26 0.62 0.66 0.62 l0.44 0 c1.62 0 3.02 -0.16 3.84 -0.9 c0.2 -0.18 0.64 -0.14 0.46 0.26 l-1.14 2.52 c-0.16 0.36 -0.46 0.32 -0.68 0.02 c-0.46 -0.64 -1.48 -0.9 -2.64 -0.9 l-0.28 0 c-0.4 0 -0.66 0.1 -0.66 0.62 l0 3.16 c0 1.48 0.92 1.6 2.56 1.96 c0.18 0.04 0.08 0.74 -0.12 0.72 c-1.44 -0.1 -2.48 -0.12 -3.64 -0.12 s-2.2 0.02 -3.14 0.12 z M61.14 20 c-0.16 0 -0.28 -0.66 -0.12 -0.68 c1.02 -0.14 1.66 -0.54 1.66 -1.8 l0 -9.04 c0 -1.26 -0.64 -1.66 -1.66 -1.8 c-0.16 -0.02 -0.04 -0.68 0.12 -0.68 l5.48 0 c0.16 0 0.28 0.66 0.12 0.68 c-0.86 0.12 -1.66 0.4 -1.66 1.8 l0 9.04 c0 1.4 0.8 1.68 1.66 1.8 c0.16 0.02 0.04 0.68 -0.12 0.68 l-5.48 0 z M68.32000000000001 20.04 c-0.2 0.02 -0.28 -0.68 -0.12 -0.72 c1.16 -0.3 2.06 -0.48 2.06 -1.96 l0 -8.88 c0 -1.28 -0.82 -1.62 -1.68 -1.84 c-0.16 -0.04 -0.06 -0.7 0.1 -0.68 c0.82 0.1 1.66 0.12 2.5 0.12 c1.56 0 2.96 -0.12 3.98 -0.12 c4.84 0 7.46 2.88 7.46 6.74 c0 3.84 -2.62 7.34 -7.48 7.34 c-0.96 0 -2.2 -0.12 -3.68 -0.12 c-1.24 0 -2.22 0.02 -3.14 0.12 z M75.34 18.98 c3.26 0 4.88 -1.76 4.88 -5.14 c0 -3.82 -2.08 -6.82 -5.68 -6.82 c-1.42 0 -1.88 0.44 -1.88 1.46 l0 8.88 c0 1.08 0.74 1.62 2.68 1.62 z M84.32000000000001 20.04 c-0.2 0.02 -0.28 -0.68 -0.12 -0.72 c1.16 -0.3 2.06 -0.48 2.06 -1.96 l0 -8.88 c0 -1.28 -0.82 -1.62 -1.68 -1.84 c-0.16 -0.04 -0.06 -0.7 0.1 -0.68 c1.46 0.16 3.98 0.12 5.2 0.12 c1.82 0 3.14 -0.08 4.78 -0.12 c0.48 0 0.48 0.32 0.38 0.78 l-0.48 1.9 c-0.06 0.28 -0.56 0.28 -0.64 0 c-0.3 -0.98 -0.9 -1.54 -3.4 -1.54 c-1.4 0 -1.86 0.36 -1.86 1.4 l0 3.26 c0 0.52 0.26 0.62 0.66 0.62 l0.44 0 c1.62 0 3.02 -0.16 3.84 -0.9 c0.2 -0.18 0.64 -0.14 0.46 0.26 l-1.14 2.52 c-0.16 0.36 -0.46 0.32 -0.68 0.02 c-0.46 -0.64 -1.48 -0.9 -2.64 -0.9 l-0.28 0 c-0.4 0 -0.66 0.1 -0.66 0.62 l0 3.36 c0 1.14 0.48 1.56 2.14 1.56 c3.02 0 4.22 -1.38 4.7 -2.14 c0.14 -0.22 0.68 -0.12 0.68 0.22 c0 1.02 -0.86 3.04 -2.12 3.04 c-1.12 -0.06 -2.22 -0.12 -3.9 -0.12 c-1.84 0 -4.02 -0.06 -5.84 0.12 z M111.04 20.2 c-0.34 0 -0.52 -0.14 -0.74 -0.38 l-9.52 -9.96 l0 7.6 c0 1.36 0.8 1.58 1.94 1.86 c0.16 0.04 0.08 0.68 -0.12 0.68 l-4.74 0 c-0.16 0 -0.28 -0.62 -0.1 -0.68 c0.84 -0.28 1.64 -0.44 1.64 -1.86 l0 -7.76 c0 -1.42 -0.22 -2.1 -0.74 -2.8 c-0.18 -0.24 -0.36 -0.4 -0.36 -0.46 c0 -0.18 0.12 -0.44 0.4 -0.44 l1.48 0 c0.2 0 0.34 0.02 0.48 0.18 l9.32 9.86 l0 -7.52 c0 -1.42 -0.9 -1.58 -1.94 -1.84 c-0.16 -0.04 -0.08 -0.68 0.12 -0.68 l4.74 0 c0.16 0 0.26 0.64 0.1 0.68 c-0.88 0.26 -1.64 0.42 -1.64 1.84 l0 7.78 c0 1.32 0.04 2.78 0.24 3.52 c0.08 0.3 -0.24 0.38 -0.56 0.38 z M122.88 20.32 c-3.36 0 -7.9 -1.96 -7.9 -7.06 c0 -3.46 2.12 -7.58 7.72 -7.58 c2.32 0 4.32 0.72 4.08 1.42 l-0.26 0.78 c-0.72 2.14 -1.5 -0.6 -5.06 -0.6 c-2.86 0 -4.26 1.86 -4.26 4.74 c0 4.5 3.42 6.38 6.16 6.38 c0.36 0 2.18 -0.28 3.22 -0.94 c0.16 -0.1 0.58 0.36 0.46 0.54 c-0.86 1.26 -3.54 2.32 -4.16 2.32 z M128.76 20.04 c-0.2 0.02 -0.28 -0.68 -0.12 -0.72 c1.16 -0.3 2.06 -0.48 2.06 -1.96 l0 -8.88 c0 -1.28 -0.82 -1.62 -1.68 -1.84 c-0.16 -0.04 -0.06 -0.7 0.1 -0.68 c1.46 0.16 3.98 0.12 5.2 0.12 c1.82 0 3.14 -0.08 4.78 -0.12 c0.48 0 0.48 0.32 0.38 0.78 l-0.48 1.9 c-0.06 0.28 -0.56 0.28 -0.64 0 c-0.3 -0.98 -0.9 -1.54 -3.4 -1.54 c-1.4 0 -1.86 0.36 -1.86 1.4 l0 3.26 c0 0.52 0.26 0.62 0.66 0.62 l0.44 0 c1.62 0 3.02 -0.16 3.84 -0.9 c0.2 -0.18 0.64 -0.14 0.46 0.26 l-1.14 2.52 c-0.16 0.36 -0.46 0.32 -0.68 0.02 c-0.46 -0.64 -1.48 -0.9 -2.64 -0.9 l-0.28 0 c-0.4 0 -0.66 0.1 -0.66 0.62 l0 3.36 c0 1.14 0.48 1.56 2.14 1.56 c3.02 0 4.22 -1.38 4.7 -2.14 c0.14 -0.22 0.68 -0.12 0.68 0.22 c0 1.02 -0.86 3.04 -2.12 3.04 c-1.12 -0.06 -2.22 -0.12 -3.9 -0.12 c-1.84 0 -4.02 -0.06 -5.84 0.12 z M146.32000000000002 20 c-0.16 0 -0.28 -0.66 -0.12 -0.68 c1.02 -0.14 1.66 -0.54 1.66 -1.8 l0 -9.04 c0 -1.26 -0.64 -1.66 -1.66 -1.8 c-0.16 -0.02 -0.04 -0.68 0.12 -0.68 l5.48 0 c0.16 0 0.28 0.66 0.12 0.68 c-0.86 0.12 -1.66 0.4 -1.66 1.8 l0 9.04 c0 1.4 0.8 1.68 1.66 1.8 c0.16 0.02 0.04 0.68 -0.12 0.68 l-5.48 0 z M166.86 20.2 c-0.34 0 -0.52 -0.14 -0.74 -0.38 l-9.52 -9.96 l0 7.6 c0 1.36 0.8 1.58 1.94 1.86 c0.16 0.04 0.08 0.68 -0.12 0.68 l-4.74 0 c-0.16 0 -0.28 -0.62 -0.1 -0.68 c0.84 -0.28 1.64 -0.44 1.64 -1.86 l0 -7.76 c0 -1.42 -0.22 -2.1 -0.74 -2.8 c-0.18 -0.24 -0.36 -0.4 -0.36 -0.46 c0 -0.18 0.12 -0.44 0.4 -0.44 l1.48 0 c0.2 0 0.34 0.02 0.48 0.18 l9.32 9.86 l0 -7.52 c0 -1.42 -0.9 -1.58 -1.94 -1.84 c-0.16 -0.04 -0.08 -0.68 0.12 -0.68 l4.74 0 c0.16 0 0.26 0.64 0.1 0.68 c-0.88 0.26 -1.64 0.42 -1.64 1.84 l0 7.78 c0 1.32 0.04 2.78 0.24 3.52 c0.08 0.3 -0.24 0.38 -0.56 0.38 z M174.3 20.04 c-0.2 0.02 -0.28 -0.68 -0.12 -0.72 c1.16 -0.3 2.06 -0.48 2.06 -1.96 l0 -8.88 c0 -1.28 -0.82 -1.62 -1.68 -1.84 c-0.16 -0.04 -0.06 -0.7 0.1 -0.68 c1.46 0.16 3.98 0.12 5.2 0.12 c1.82 0 3.14 -0.08 4.78 -0.12 c0.48 0 0.48 0.32 0.38 0.78 l-0.48 1.9 c-0.06 0.28 -0.56 0.28 -0.64 0 c-0.3 -0.98 -0.9 -1.54 -3.4 -1.54 c-1.4 0 -1.86 0.36 -1.86 1.4 l0 3.26 c0 0.52 0.26 0.62 0.66 0.62 l0.44 0 c1.62 0 3.02 -0.16 3.84 -0.9 c0.2 -0.18 0.64 -0.14 0.46 0.26 l-1.14 2.52 c-0.16 0.36 -0.46 0.32 -0.68 0.02 c-0.46 -0.64 -1.48 -0.9 -2.64 -0.9 l-0.28 0 c-0.4 0 -0.66 0.1 -0.66 0.62 l0 3.36 c0 1.14 0.48 1.56 2.14 1.56 c3.02 0 4.22 -1.38 4.7 -2.14 c0.14 -0.22 0.68 -0.12 0.68 0.22 c0 1.02 -0.86 3.04 -2.12 3.04 c-1.12 -0.06 -2.22 -0.12 -3.9 -0.12 c-1.84 0 -4.02 -0.06 -5.84 0.12 z M202.46000000000004 6 c0.22 0 0.3 0.64 0.04 0.68 c-0.8 0.12 -1.32 0.44 -2.04 2.12 l-3.38 7.86 c-0.7 1.62 -1.02 2.54 -1.02 3.34 c0 0.12 -1.38 0.44 -1.44 0.3 l-4.86 -11.48 c-0.72 -1.72 -1.26 -2.02 -2.04 -2.14 c-0.26 -0.04 -0.2 -0.68 0.06 -0.68 l5.26 0 c0.26 0 0.3 0.64 0.06 0.68 c-0.74 0.12 -1.48 0.44 -0.78 2.12 l3.38 8.12 l3.38 -8.12 c0.72 -1.72 -0.08 -1.98 -1 -2.12 c-0.26 -0.04 -0.2 -0.68 0.06 -0.68 l4.32 0 z M203.96000000000004 20.04 c-0.2 0.02 -0.28 -0.68 -0.12 -0.72 c1.16 -0.3 2.06 -0.48 2.06 -1.96 l0 -8.88 c0 -1.28 -0.82 -1.62 -1.68 -1.84 c-0.16 -0.04 -0.06 -0.7 0.1 -0.68 c1.46 0.16 3.98 0.12 5.2 0.12 c1.82 0 3.14 -0.08 4.78 -0.12 c0.48 0 0.48 0.32 0.38 0.78 l-0.48 1.9 c-0.06 0.28 -0.56 0.28 -0.64 0 c-0.3 -0.98 -0.9 -1.54 -3.4 -1.54 c-1.4 0 -1.86 0.36 -1.86 1.4 l0 3.26 c0 0.52 0.26 0.62 0.66 0.62 l0.44 0 c1.62 0 3.02 -0.16 3.84 -0.9 c0.2 -0.18 0.64 -0.14 0.46 0.26 l-1.14 2.52 c-0.16 0.36 -0.46 0.32 -0.68 0.02 c-0.46 -0.64 -1.48 -0.9 -2.64 -0.9 l-0.28 0 c-0.4 0 -0.66 0.1 -0.66 0.62 l0 3.36 c0 1.14 0.48 1.56 2.14 1.56 c3.02 0 4.22 -1.38 4.7 -2.14 c0.14 -0.22 0.68 -0.12 0.68 0.22 c0 1.02 -0.86 3.04 -2.12 3.04 c-1.12 -0.06 -2.22 -0.12 -3.9 -0.12 c-1.84 0 -4.02 -0.06 -5.84 0.12 z M232.12000000000006 19.5 c0.16 0 0.12 0.54 0 0.58 c-1.26 0.42 -3 0.36 -4.2 -1.18 l-3.08 -3.96 c-0.86 -1.12 -1.88 -1.28 -3.28 -1.3 l0 3.88 c0 1.4 0.96 1.64 2.24 1.8 c0.14 0.02 0.04 0.68 -0.12 0.68 l-6.06 0 c-0.16 0 -0.28 -0.66 -0.12 -0.68 c1.02 -0.14 1.66 -0.54 1.66 -1.8 l0 -8.92 c0 -1.32 -0.7 -1.7 -1.66 -1.96 c-0.16 -0.04 -0.06 -0.7 0.12 -0.68 c0.78 0.1 1.66 0.12 2.3 0.12 c1.48 0 2.86 -0.12 3.82 -0.12 c3.02 0 5.04 1.24 5.04 3.7 c0 2.32 -1.88 3.46 -3.56 3.56 l0 0.1 c0.8 0 1.38 0.34 2.26 1.44 l2.98 3.74 c0.62 0.78 1.22 1 1.66 1 z M222.14000000000007 12.719999999999999 c2.98 0 4.12 -0.52 4.12 -2.52 c0 -2.14 -1.36 -3.2 -3.14 -3.2 c-1.18 0 -1.56 0.48 -1.56 1.6 l0 4.12 l0.58 0 z M246.90000000000006 6 c0.24 0 0.3 0.64 0.06 0.68 c-0.78 0.12 -1.46 0.68 -2.38 2.12 l-3.2 5 l0 3.72 c0 1.4 0.8 1.64 2.04 1.8 c0.14 0.02 0.04 0.68 -0.12 0.68 l-6.26 0 c-0.16 0 -0.26 -0.66 -0.12 -0.68 c1.32 -0.18 2.06 -0.44 2.06 -1.8 l0 -3.64 l-3.36 -5.06 c-0.92 -1.38 -1.48 -2 -2.34 -2.14 c-0.26 -0.04 -0.2 -0.68 0.06 -0.68 l5.28 0 c0.26 0 0.3 0.64 0.06 0.68 c-0.88 0.14 -1.22 0.82 -0.36 2.12 l2.54 3.78 l2.44 -3.78 c0.84 -1.3 0.34 -1.96 -0.72 -2.12 c-0.28 -0.04 -0.2 -0.68 0.04 -0.68 l4.28 0 z M256.74000000000007 20.32 c-1.64 0 -4.14 -0.72 -3.9 -1.6 l0.2 -0.74 c0.56 -2.1 1.22 0.98 4.52 0.98 c1.68 0 2.5 -0.82 2.5 -1.98 c0 -0.94 -0.6 -1.34 -2.02 -2.22 l-1.94 -1.22 c-2.16 -1.36 -3.04 -2.2 -3.04 -3.7 c0 -2.46 2.4 -4.16 4.88 -4.16 c1.52 0 3.46 0.66 3.24 1.34 l-0.24 0.76 c-0.62 1.94 -1.12 -0.74 -3.86 -0.74 c-1.42 0 -2.16 0.72 -2.16 1.78 c0 0.9 0.54 1.4 1.88 2.22 l2.1 1.3 c2.12 1.32 2.98 2.22 2.98 3.66 c0 2.5 -2.46 4.32 -5.14 4.32 z M266.66 20 c-0.18 0 -0.3 -0.64 -0.14 -0.66 c1.38 -0.18 2.3 -0.46 2.3 -1.54 l0 -9.86 c0 -0.5 -0.18 -0.66 -0.66 -0.66 l-0.54 0 c-1.9 0 -2.96 0.44 -3.36 1.3 c-0.18 0.4 -0.86 0.34 -0.78 0 c0.18 -0.72 0.34 -1.34 0.46 -2.4 c0.04 -0.38 0.26 -0.36 0.62 -0.32 c0.92 0.1 1.76 0.14 5.56 0.14 s5.14 -0.04 6.1 -0.14 c0.36 -0.04 0.7 -0.06 0.58 0.32 c-0.3 0.94 -0.5 1.68 -0.62 2.4 c-0.06 0.34 -0.6 0.36 -0.68 0 c-0.2 -0.84 -1.08 -1.3 -2.8 -1.3 l-0.62 0 c-0.48 0 -0.78 0.16 -0.78 0.66 l0 9.86 c0 1.08 0.92 1.36 2.3 1.54 c0.16 0.02 0.04 0.66 -0.14 0.66 l-6.8 0 z M278.12000000000006 20.04 c-0.2 0.02 -0.28 -0.68 -0.12 -0.72 c1.16 -0.3 2.06 -0.48 2.06 -1.96 l0 -8.88 c0 -1.28 -0.82 -1.62 -1.68 -1.84 c-0.16 -0.04 -0.06 -0.7 0.1 -0.68 c1.46 0.16 3.98 0.12 5.2 0.12 c1.82 0 3.14 -0.08 4.78 -0.12 c0.48 0 0.48 0.32 0.38 0.78 l-0.48 1.9 c-0.06 0.28 -0.56 0.28 -0.64 0 c-0.3 -0.98 -0.9 -1.54 -3.4 -1.54 c-1.4 0 -1.86 0.36 -1.86 1.4 l0 3.26 c0 0.52 0.26 0.62 0.66 0.62 l0.44 0 c1.62 0 3.02 -0.16 3.84 -0.9 c0.2 -0.18 0.64 -0.14 0.46 0.26 l-1.14 2.52 c-0.16 0.36 -0.46 0.32 -0.68 0.02 c-0.46 -0.64 -1.48 -0.9 -2.64 -0.9 l-0.28 0 c-0.4 0 -0.66 0.1 -0.66 0.62 l0 3.36 c0 1.14 0.48 1.56 2.14 1.56 c3.02 0 4.22 -1.38 4.7 -2.14 c0.14 -0.22 0.68 -0.12 0.68 0.22 c0 1.02 -0.86 3.04 -2.12 3.04 c-1.12 -0.06 -2.22 -0.12 -3.9 -0.12 c-1.84 0 -4.02 -0.06 -5.84 0.12 z M303.4800000000001 10.24 c0 3.56 -3.34 5.06 -7.76 4.4 l0 2.88 c0 1.4 0.96 1.64 2.24 1.8 c0.14 0.02 0.04 0.68 -0.12 0.68 l-6.06 0 c-0.16 0 -0.28 -0.66 -0.12 -0.68 c1.02 -0.14 1.66 -0.54 1.66 -1.8 l0 -8.92 c0 -1.32 -0.7 -1.7 -1.66 -1.96 c-0.16 -0.04 -0.06 -0.7 0.12 -0.68 c0.78 0.1 1.66 0.12 2.3 0.12 c1.48 0 2.72 -0.12 3.74 -0.12 c3.1 0 5.66 1.14 5.66 4.28 z M297.3200000000001 7 c-1.26 0 -1.6 0.44 -1.6 1.6 l0 5.06 c3.4 0.48 5.18 -0.34 5.18 -2.96 c0 -2.38 -1.52 -3.7 -3.58 -3.7 z M307.1000000000001 20.2 c-0.44 0 -1.52 -0.94 -1.52 -1.52 s1.08 -1.52 1.52 -1.52 s1.52 0.94 1.52 1.52 s-1.08 1.52 -1.52 1.52 z">
    </path>
  </g>
</svg>